<svg width="308" height="142" viewBox="0 0 308 142" fill="none" xmlns="http://www.w3.org/2000/svg">
<path d="M54.896 141.128L52.88 140.456C52.7307 140.904 52.3573 141.053 51.76 140.904C51.312 140.904 50.9387 140.755 50.64 140.456C49.8933 139.261 49.072 138.739 48.176 138.888C47.28 139.187 46.0853 139.037 44.592 138.44H44.368C43.92 138.44 43.3973 138.515 42.8 138.664C42.352 138.963 41.904 139.037 41.456 138.888L39.888 137.544C39.888 137.693 39.7387 137.768 39.44 137.768C38.992 137.768 38.544 137.693 38.096 137.544C37.648 137.395 37.4987 137.245 37.648 137.096L33.84 135.08L33.392 135.304L30.928 132.616C30.7787 132.765 30.6293 132.84 30.48 132.84C30.1813 132.84 29.8827 132.616 29.584 132.168C29.2853 131.869 29.0613 131.72 28.912 131.72C28.016 130.973 26.9707 130.227 25.776 129.48C24.7307 128.883 23.6853 128.211 22.64 127.464C22.4907 127.315 22.416 127.016 22.416 126.568C22.416 126.269 22.2667 126.045 21.968 125.896C21.52 125.448 20.9973 125 20.4 124.552C19.8027 124.104 19.4293 123.581 19.28 122.984L18.384 123.208C17.488 121.565 16.4427 120.072 15.248 118.728C14.0533 117.384 13.5307 115.592 13.68 113.352H13.232L10.32 112.232V111.56C10.1707 111.56 9.94667 111.635 9.648 111.784C9.34933 111.784 8.976 111.709 8.528 111.56C7.48267 111.112 6.512 110.589 5.616 109.992C4.72 109.245 4.048 108.349 3.6 107.304C3.45067 106.856 3.22667 106.632 2.928 106.632C2.77867 106.632 2.62933 106.557 2.48 106.408C2.18133 105.661 1.73333 104.989 1.136 104.392C0.538667 103.795 0.314667 103.048 0.464 102.152L1.136 96.552C2.33067 95.208 3.22667 94.536 3.824 94.536C4.42133 94.536 4.72 95.208 4.72 96.552L3.376 98.792L3.6 101.48C3.89867 101.779 4.34667 101.928 4.944 101.928C5.54133 101.928 5.98933 101.853 6.288 101.704L6.064 103.048L6.96 104.616L7.184 104.168L8.528 104.616L9.648 106.184C9.94667 105.587 10.2453 105.587 10.544 106.184C10.8427 106.632 10.992 106.856 10.992 106.856L12.112 105.96C11.9627 105.213 11.8133 104.467 11.664 103.72C11.5147 102.824 11.44 102.003 11.44 101.256C11.44 100.211 11.5147 99.464 11.664 99.016C12.112 97.3733 12.2613 96.104 12.112 95.208C12.112 95.208 12.4107 94.6853 13.008 93.64C13.6053 92.4453 14.2027 91.6987 14.8 91.4L16.592 90.28L17.04 90.952C16.8907 91.1013 16.592 91.5493 16.144 92.296C15.696 93.0427 15.3227 93.5653 15.024 93.864C13.8293 96.4027 13.3813 98.9413 13.68 101.48C13.68 101.629 13.68 101.853 13.68 102.152C13.8293 102.301 13.8293 102.6 13.68 103.048V106.184C13.9787 106.333 14.128 106.931 14.128 107.976C14.128 108.872 14.2773 109.245 14.576 109.096C15.3227 108.947 15.92 109.171 16.368 109.768C16.9653 110.216 17.4133 109.992 17.712 109.096L19.28 110.888H21.52C21.3707 111.187 21.744 111.485 22.64 111.784C23.6853 111.933 24.7307 112.008 25.776 112.008C26.8213 112.008 27.344 112.008 27.344 112.008L28.688 113.128C28.688 112.979 28.912 113.128 29.36 113.576H29.584C30.032 113.576 30.48 113.427 30.928 113.128C31.5253 112.829 31.9733 112.68 32.272 112.68C33.0187 112.829 33.7653 113.128 34.512 113.576C35.408 114.024 36.08 114.024 36.528 113.576L38.32 114.248L40.336 113.128C40.6347 113.427 41.232 113.725 42.128 114.024C42.4267 114.173 42.8747 114.248 43.472 114.248C44.816 114.248 45.7867 113.949 46.384 113.352L47.28 114.472C49.3707 114.323 51.4613 114.323 53.552 114.472C55.792 114.472 57.8827 114.472 59.824 114.472C61.4667 114.472 63.0347 114.472 64.528 114.472C66.1707 114.323 67.7387 114.173 69.232 114.024C69.68 114.024 70.0533 114.024 70.352 114.024C70.6507 113.875 70.8747 113.8 71.024 113.8C72.0693 113.8 73.264 113.501 74.608 112.904C75.952 112.307 77.072 112.008 77.968 112.008C78.2667 112.008 78.9387 111.784 79.984 111.336C81.1787 110.739 81.552 111.112 81.104 112.456L78.864 113.576L78.192 113.352C78.0427 113.501 77.3707 113.875 76.176 114.472C75.1307 114.92 74.5333 114.995 74.384 114.696L69.68 115.368C69.0827 115.517 68.1867 115.667 66.992 115.816C65.7973 115.965 65.2 115.965 65.2 115.816L63.184 116.264C63.184 116.115 63.0347 116.04 62.736 116.04C62.1387 116.04 61.2427 116.264 60.048 116.712C59.0027 117.16 58.4053 117.309 58.256 117.16C58.1067 116.861 57.36 116.861 56.016 117.16C54.8213 117.309 53.6267 117.384 52.432 117.384C50.64 117.384 49.6693 117.085 49.52 116.488L47.728 117.16C48.0267 116.861 47.8773 116.712 47.28 116.712C46.832 116.563 46.4587 116.563 46.16 116.712L45.936 117.832C45.6373 117.981 45.3387 117.981 45.04 117.832C44.7413 117.683 44.4427 117.533 44.144 117.384C43.248 116.936 41.8293 116.712 39.888 116.712C37.9467 116.712 36.08 116.637 34.288 116.488C32.496 116.339 31.376 115.965 30.928 115.368L29.136 116.264C28.5387 116.264 27.6427 116.189 26.448 116.04C25.4027 115.741 24.5813 115.517 23.984 115.368C22.9387 115.069 21.744 114.771 20.4 114.472C19.2053 114.173 18.0107 114.099 16.816 114.248L17.936 116.04V116.488C18.9813 117.085 19.8027 118.056 20.4 119.4C21.1467 120.595 22.2667 121.043 23.76 120.744L24.432 123.656L26.224 124.776C26.3733 124.627 26.5227 124.552 26.672 124.552C27.12 124.552 27.8667 124.851 28.912 125.448C29.9573 126.045 30.7787 126.493 31.376 126.792L32.048 126.344L33.168 128.36C33.3173 128.211 33.4667 128.136 33.616 128.136C34.064 128.136 34.5867 128.285 35.184 128.584C35.7813 128.883 36.1547 128.957 36.304 128.808L37.872 129.256L39.44 128.808C40.0373 129.704 40.4107 130.376 40.56 130.824C40.7093 131.272 40.9333 131.571 41.232 131.72C41.9787 132.019 41.9787 132.243 41.232 132.392C40.6347 132.541 40.336 132.765 40.336 133.064L40.56 133.512H42.576C42.576 133.064 43.0987 132.691 44.144 132.392C45.3387 132.243 46.5333 132.168 47.728 132.168C49.52 132.168 50.5653 132.317 50.864 132.616C51.4613 132.915 51.6107 132.915 51.312 132.616L53.328 132.392L54.672 133.512C54.9707 133.064 55.2693 132.84 55.568 132.84C56.016 132.84 56.3893 132.915 56.688 133.064C57.136 133.363 57.36 133.512 57.36 133.512C57.6587 133.661 57.9573 133.363 58.256 132.616C58.704 132.019 59.2267 131.795 59.824 131.944L60.72 132.168C61.7653 132.168 62.8107 132.019 63.856 131.72C65.0507 131.421 65.7227 131.72 65.872 132.616L67.44 131.496L68.56 131.72L68.112 133.512C68.112 134.109 68.1867 134.408 68.336 134.408C68.6347 134.408 69.008 133.885 69.456 132.84C70.0533 131.944 70.352 131.869 70.352 132.616L71.92 130.824C72.368 131.123 72.9653 131.272 73.712 131.272C74.9067 131.272 76.0267 130.824 77.072 129.928C78.1173 129.181 79.3867 128.659 80.88 128.36L81.104 128.808C81.4027 128.659 81.7013 128.509 82 128.36C82.448 128.36 82.672 128.509 82.672 128.808L85.136 128.584C85.7333 128.136 86.704 127.613 88.048 127.016C89.5413 126.419 90.5867 125.971 91.184 125.672L91.408 124.776C91.408 124.776 91.7813 124.776 92.528 124.776C93.424 124.627 93.9467 124.477 94.096 124.328V124.104C94.096 123.805 94.096 123.357 94.096 122.76C94.096 122.013 94.3947 121.715 94.992 121.864L96.112 122.536C97.456 122.088 98.352 121.491 98.8 120.744C99.3973 119.848 100.293 119.027 101.488 118.28C101.936 117.981 102.309 117.608 102.608 117.16C103.056 116.712 103.579 116.413 104.176 116.264C104.325 116.264 104.549 116.488 104.848 116.936C105.296 117.384 105.744 117.309 106.192 116.712L106.416 114.472L108.432 113.8L109.552 112.232C109.552 112.232 109.552 112.307 109.552 112.456C109.701 112.456 109.851 112.456 110 112.456C110.597 112.456 111.269 111.859 112.016 110.664C112.763 109.469 112.912 108.648 112.464 108.2L114.704 105.736C114.555 104.84 114.853 103.72 115.6 102.376C116.496 101.032 116.944 99.3893 116.944 97.448C116.944 96.2533 116.571 94.8347 115.824 93.192C115.077 91.5493 113.584 89.7573 111.344 87.816L110.224 87.144C108.432 85.9493 106.789 85.0533 105.296 84.456C103.952 83.7093 102.16 82.9627 99.92 82.216C99.92 82.216 99.696 82.0667 99.248 81.768L92.976 79.976C92.3787 79.528 91.0347 79.1547 88.944 78.856C86.8533 78.5573 85.4347 78.3333 84.688 78.184C84.3893 78.0347 84.016 77.8107 83.568 77.512C83.2693 77.2133 82.9707 77.288 82.672 77.736L80.656 76.616C80.3573 76.7653 79.984 76.84 79.536 76.84C79.2373 76.84 78.9387 76.7653 78.64 76.616C78.4907 76.4667 78.0427 76.392 77.296 76.392C76.2507 76.2427 74.5333 75.7947 72.144 75.048C69.904 74.3013 68.6347 74.0773 68.336 74.376L62.512 71.464L61.84 71.688L59.824 70.568C60.272 71.1653 59.9733 71.3147 58.928 71.016C57.8827 70.568 56.688 70.0453 55.344 69.448C54 68.7013 52.9547 68.2533 52.208 68.104C49.6693 67.0587 47.3547 65.5653 45.264 63.624C43.3227 61.6827 42.352 59.2933 42.352 56.456C42.352 53.9173 42.5013 52.1253 42.8 51.08C43.0987 50.0347 43.472 49.1387 43.92 48.392C44.5173 47.6453 45.04 46.5253 45.488 45.032C45.7867 44.584 46.16 44.136 46.608 43.688C47.2053 43.0907 47.5787 42.4933 47.728 41.896L49.52 40.776C49.6693 40.0293 50.0427 39.2827 50.64 38.536C51.3867 37.7893 52.0587 37.2667 52.656 36.968C54.5973 36.072 56.7627 34.5787 59.152 32.488C61.6907 30.248 64.1547 28.6053 66.544 27.56C67.1413 27.2613 67.664 27.0373 68.112 26.888C68.56 26.5893 69.0827 26.3653 69.68 26.216L69.904 26.664C71.248 26.216 73.488 25.544 76.624 24.648C79.76 23.6027 83.1947 22.5573 86.928 21.512C90.8107 20.4667 94.3947 19.5707 97.68 18.824C101.115 18.0773 103.803 17.704 105.744 17.704C107.088 17.704 107.835 17.928 107.984 18.376L110.672 16.808C110.821 16.9573 111.12 17.1067 111.568 17.256C112.016 17.256 112.315 17.1813 112.464 17.032L114.704 17.704C115.301 17.4053 115.749 17.256 116.048 17.256C116.944 17.256 117.915 17.5547 118.96 18.152C120.155 18.6 121.051 18.7493 121.648 18.6C122.395 18.3013 122.917 18.2267 123.216 18.376C123.664 18.376 124.112 18.376 124.56 18.376H125.456C125.904 18.376 126.352 18.4507 126.8 18.6C127.397 18.6 127.995 18.8987 128.592 19.496L129.712 19.72C130.16 20.168 130.384 20.6907 130.384 21.288C130.683 21.8853 131.579 22.2587 133.072 22.408C134.565 22.5573 135.536 22.856 135.984 23.304C137.179 24.2 137.851 25.6933 138 27.784C138.299 29.7253 138.448 31.5173 138.448 33.16C138.299 34.8027 137.627 36.8187 136.432 39.208C135.387 41.448 134.043 43.24 132.4 44.584C131.653 45.1813 130.533 45.8533 129.04 46.6C127.547 47.1973 126.427 47.72 125.68 48.168C124.037 49.2133 122.245 49.736 120.304 49.736C117.467 49.736 116.048 49.1387 116.048 47.944C116.048 47.496 116.571 47.048 117.616 46.6C118.363 46.3013 119.035 46.0027 119.632 45.704C120.379 45.256 121.051 44.7333 121.648 44.136C122.245 43.8373 122.619 43.688 122.768 43.688C123.067 43.5387 123.291 43.3893 123.44 43.24C123.739 43.0907 123.963 42.9413 124.112 42.792C124.261 42.4933 124.56 42.1947 125.008 41.896C125.904 41.1493 127.024 39.9547 128.368 38.312C129.861 36.52 130.907 35.176 131.504 34.28C131.653 33.5333 131.952 32.5627 132.4 31.368C132.997 30.024 133.296 28.8293 133.296 27.784C133.296 26.888 133.072 26.216 132.624 25.768C132.475 25.768 132.4 25.6933 132.4 25.544L132.176 25.096C130.981 22.5573 128.592 21.1387 125.008 20.84C121.573 20.392 118.661 20.168 116.272 20.168C116.272 20.168 116.123 20.0933 115.824 19.944C115.525 19.7947 115.376 19.8693 115.376 20.168L110.448 20.616L110 20.168L105.296 21.064L104.848 20.84L99.92 22.184C100.069 21.8853 99.9947 21.8107 99.696 21.96C99.3973 21.96 99.248 21.96 99.248 21.96L94.32 23.304L94.096 23.08L91.856 24.424C91.856 24.2747 91.7813 24.1253 91.632 23.976C91.4827 23.8267 91.408 23.752 91.408 23.752C91.2587 23.9013 91.1093 24.1253 90.96 24.424C90.8107 24.5733 90.5867 24.7227 90.288 24.872L89.84 24.648L86.704 25.768C86.704 25.9173 86.4053 25.992 85.808 25.992C81.776 27.784 77.3707 29.8747 72.592 32.264C67.9627 34.504 64.3787 37.7147 61.84 41.896L61.392 41.448L59.376 43.24C59.2267 43.3893 59.0027 43.6133 58.704 43.912C58.5547 44.2107 58.3307 44.7333 58.032 45.48C57.584 46.6747 56.912 48.0933 56.016 49.736C55.2693 51.3787 54.896 52.9467 54.896 54.44C54.896 55.9333 55.1947 57.352 55.792 58.696C56.3893 59.8907 56.8373 60.1893 57.136 59.592L59.152 60.936L59.824 63.4L60.272 63.176L63.184 65.416H63.632L67.216 68.328L69.904 69.896H71.696L74.384 70.792C74.6827 70.9413 74.9067 71.1653 75.056 71.464C75.3547 71.6133 75.728 71.464 76.176 71.016L78.416 72.584C78.5653 72.4347 78.7893 72.36 79.088 72.36C79.3867 72.36 79.6853 72.5093 79.984 72.808C80.2827 72.9573 80.5067 73.1067 80.656 73.256L81.104 73.032L88.944 76.168C89.2427 76.0187 89.616 75.944 90.064 75.944C90.8107 75.944 91.408 76.0933 91.856 76.392C92.4533 76.5413 93.0507 76.6907 93.648 76.84C93.9467 76.9893 94.32 77.2133 94.768 77.512C95.3653 77.8107 95.664 78.0347 95.664 78.184C95.9627 78.3333 96.2613 78.408 96.56 78.408C97.008 78.408 97.3813 78.408 97.68 78.408L99.696 79.08L101.712 80.2L103.728 80.424C103.728 80.424 104.325 80.7227 105.52 81.32C106.864 81.768 108.208 82.216 109.552 82.664C111.045 83.112 111.867 83.4107 112.016 83.56L113.36 84.904L113.584 84.68L115.152 85.576C116.795 86.6213 118.437 88.6373 120.08 91.624C121.872 94.4613 122.768 97.5973 122.768 101.032C122.768 103.272 122.395 105.512 121.648 107.752C121.051 109.843 120.304 111.56 119.408 112.904C117.168 115.891 114.704 118.579 112.016 120.968C109.477 123.357 107.163 125.373 105.072 127.016C104.325 127.464 103.803 127.837 103.504 128.136C103.205 128.435 102.757 128.584 102.16 128.584C101.712 128.733 101.339 128.957 101.04 129.256C98.9493 130.451 96.6347 131.496 94.096 132.392C91.5573 133.437 89.3173 134.408 87.376 135.304C86.48 135.603 85.7333 135.752 85.136 135.752C84.5387 135.901 83.9413 136.051 83.344 136.2C83.1947 136.2 82.896 136.275 82.448 136.424C82.1493 136.723 82 136.797 82 136.648L80.432 137.768C80.2827 137.619 80.0587 137.544 79.76 137.544C79.1627 137.544 78.4907 137.843 77.744 138.44C77.1467 139.037 76.5493 139.261 75.952 139.112H75.728C75.28 139.112 74.6827 139.187 73.936 139.336C73.3387 139.635 72.8907 139.635 72.592 139.336L69.68 140.456L69.232 139.336C69.0827 139.336 68.8587 139.485 68.56 139.784C68.4107 140.232 68.1867 140.456 67.888 140.456C67.888 140.456 67.5893 140.307 66.992 140.008C66.3947 139.709 65.9467 139.859 65.648 140.456L63.184 141.128C63.0347 140.531 62.5867 140.232 61.84 140.232C61.2427 140.232 60.72 140.456 60.272 140.904L58.48 140.008V140.232L56.688 140.008L54.896 141.128ZM170.69 125.672C169.794 125.672 169.346 125.149 169.346 124.104C169.346 123.357 169.57 122.461 170.018 121.416C171.213 118.877 172.557 115.293 174.05 110.664C175.693 106.035 177.709 102.077 180.098 98.792C181.741 95.5067 183.234 92.296 184.578 89.16C186.071 85.8747 187.49 82.5893 188.834 79.304C188.834 79.304 188.685 79.2293 188.386 79.08C188.087 78.7813 187.938 78.4827 187.938 78.184C187.191 77.5867 186.295 76.7653 185.25 75.72C184.205 74.5253 184.13 73.3307 185.026 72.136C185.325 71.8373 185.474 71.688 185.474 71.688C185.623 71.688 185.698 71.688 185.698 71.688C185.698 71.5387 185.623 71.464 185.474 71.464C185.474 71.464 185.474 71.3893 185.474 71.24L185.25 71.016C185.101 71.016 184.951 71.016 184.802 71.016C184.802 70.8667 184.727 70.792 184.578 70.792C183.981 70.792 183.309 70.9413 182.562 71.24C181.815 71.3893 181.069 71.464 180.322 71.464C179.426 71.464 178.231 71.8373 176.738 72.584C175.245 73.1813 173.901 73.704 172.706 74.152C172.109 74.3013 171.735 74.376 171.586 74.376C171.586 74.2267 171.287 74.3013 170.69 74.6C170.541 74.7493 170.541 74.5253 170.69 73.928C170.989 73.1813 171.138 72.6587 171.138 72.36C171.138 72.2107 171.063 72.136 170.914 72.136C170.615 72.136 170.018 72.584 169.122 73.48C168.226 74.2267 167.629 74.6747 167.33 74.824C167.181 74.9733 167.106 75.1973 167.106 75.496C167.255 75.7947 167.33 76.0933 167.33 76.392C167.33 76.84 166.957 77.3627 166.21 77.96C165.463 78.408 164.941 78.7813 164.642 79.08C164.045 79.528 163.298 79.8267 162.402 79.976C161.655 79.976 160.909 80.2747 160.162 80.872C159.266 81.4693 158.818 81.9173 158.818 82.216C158.967 82.5147 158.519 83.0373 157.474 83.784C156.13 84.8293 154.263 86.3973 151.874 88.488C149.634 90.5787 147.917 92.4453 146.722 94.088C143.885 97.5227 141.271 101.48 138.882 105.96C136.642 110.44 135.522 113.949 135.522 116.488C135.522 118.429 136.343 119.4 137.986 119.4C138.285 119.4 138.583 119.4 138.882 119.4C139.181 119.251 139.554 119.101 140.002 118.952L145.826 115.592L147.17 115.368V115.144L148.066 115.816C148.215 115.667 148.141 115.443 147.842 115.144C147.693 114.696 147.693 114.472 147.842 114.472C147.991 114.472 148.066 114.547 148.066 114.696C148.215 114.696 148.365 114.696 148.514 114.696L148.962 114.024C148.962 114.024 149.186 114.099 149.634 114.248C150.231 114.248 150.679 114.099 150.978 113.8C151.426 113.651 151.501 113.427 151.202 113.128C151.053 112.829 150.829 112.605 150.53 112.456L152.098 111.112C152.247 110.813 152.845 110.515 153.89 110.216C156.429 108.573 158.519 106.632 160.162 104.392C161.954 102.003 163.97 99.8373 166.21 97.896H166.434L169.122 95.208L168.898 94.536L171.81 91.176H172.258C172.407 90.8773 172.706 90.504 173.154 90.056C173.751 89.608 174.125 89.2347 174.274 88.936C174.573 88.7867 175.245 88.04 176.29 86.696C177.485 85.2027 178.605 84.008 179.65 83.112C180.845 82.216 181.517 81.768 181.666 81.768C181.815 81.768 181.89 81.8427 181.89 81.992C181.89 82.44 181.666 83.112 181.218 84.008C180.919 84.904 180.621 85.5013 180.322 85.8C179.277 87.4427 177.933 89.3093 176.29 91.4C174.647 93.3413 173.677 94.536 173.378 94.984C171.586 96.9253 169.421 99.5387 166.882 102.824C164.343 105.96 161.581 109.096 158.594 112.232C155.607 115.368 152.621 118.056 149.634 120.296C146.797 122.387 144.109 123.432 141.57 123.432C139.181 123.432 136.642 122.685 133.954 121.192C131.266 119.699 129.922 116.861 129.922 112.68C129.922 111.336 130.071 109.843 130.37 108.2C130.818 106.408 131.49 104.541 132.386 102.6C132.386 102.6 132.535 102.451 132.834 102.152C133.133 101.704 133.357 101.555 133.506 101.704C133.805 101.256 133.879 100.808 133.73 100.36C133.73 99.7627 133.73 99.3893 133.73 99.24L134.178 98.792C134.477 97.1493 135.597 95.656 137.538 94.312C139.479 92.968 140.525 91.9227 140.674 91.176C140.823 91.0267 140.898 90.8027 140.898 90.504L141.794 87.592V86.696H142.69L143.362 85.8L143.586 85.352C143.287 85.2027 143.362 84.9787 143.81 84.68C144.407 84.232 144.706 84.008 144.706 84.008C144.855 83.7093 145.005 83.4853 145.154 83.336C145.453 83.1867 145.677 83.0373 145.826 82.888H147.394C147.693 82.44 147.543 82.216 146.946 82.216C146.349 82.216 146.05 82.216 146.05 82.216C146.05 82.0667 146.05 81.992 146.05 81.992C146.199 81.8427 146.274 81.6933 146.274 81.544L148.738 79.528C149.485 78.9307 150.231 78.408 150.978 77.96C151.725 77.512 152.397 76.9893 152.994 76.392C153.442 76.392 153.517 76.616 153.218 77.064C153.367 77.3627 153.517 77.3627 153.666 77.064C153.965 76.7653 154.114 76.616 154.114 76.616L155.234 76.392V76.168C155.234 75.8693 155.309 75.4213 155.458 74.824C155.607 74.2267 155.682 73.8533 155.682 73.704C158.818 71.3147 162.103 69.224 165.538 67.432C168.973 65.4907 172.333 64.52 175.618 64.52C179.501 64.52 183.01 66.0133 186.146 69L187.266 69.672C187.415 69.672 187.49 69.5973 187.49 69.448C187.789 67.3573 189.506 65.7893 192.642 64.744C195.927 63.6987 198.839 63.176 201.378 63.176C204.066 63.176 205.41 63.5493 205.41 64.296C205.41 64.5947 204.962 65.1173 204.066 65.864C203.618 66.1627 202.871 66.8347 201.826 67.88C200.781 68.9253 199.735 70.1947 198.69 71.688C198.541 72.136 198.317 72.584 198.018 73.032C197.719 73.48 197.421 73.928 197.122 74.376C196.973 74.6747 196.749 75.048 196.45 75.496C196.301 75.7947 196.077 76.0933 195.778 76.392C193.239 80.7227 191.223 84.3813 189.73 87.368C188.237 90.3547 186.445 94.1627 184.354 98.792C184.055 99.688 183.906 100.211 183.906 100.36C183.906 101.555 184.578 102.152 185.922 102.152C186.818 102.152 187.714 101.928 188.61 101.48L190.85 100.584C194.434 97.2987 198.167 94.536 202.05 92.296C202.199 92.296 202.274 92.296 202.274 92.296C202.423 92.1467 202.573 92.072 202.722 92.072C203.17 92.072 203.469 92.3707 203.618 92.968C203.767 93.416 203.618 93.7893 203.17 94.088C198.839 96.4773 194.807 99.5387 191.074 103.272C190.925 103.571 190.775 103.869 190.626 104.168C190.477 104.467 190.253 104.765 189.954 105.064C189.506 105.363 189.058 105.885 188.61 106.632C188.162 107.379 187.938 107.827 187.938 107.976C187.789 108.424 187.565 108.573 187.266 108.424C187.117 108.275 186.669 108.499 185.922 109.096C185.773 109.245 185.623 109.544 185.474 109.992C185.474 110.44 185.399 110.813 185.25 111.112C184.951 111.56 184.653 111.933 184.354 112.232C184.055 112.381 183.906 112.531 183.906 112.68C183.757 113.277 183.458 113.651 183.01 113.8C182.711 113.8 182.413 113.949 182.114 114.248C181.965 114.248 181.89 114.323 181.89 114.472C181.89 115.816 181.741 116.413 181.442 116.264C181.143 116.115 180.845 116.264 180.546 116.712C180.247 117.309 179.874 117.608 179.426 117.608C178.53 117.907 178.157 118.131 178.306 118.28C178.605 118.429 178.829 118.579 178.978 118.728C179.277 118.728 179.053 118.952 178.306 119.4C178.007 119.549 177.709 119.997 177.41 120.744C177.111 121.341 176.813 121.789 176.514 122.088C176.066 122.387 175.618 122.611 175.17 122.76C174.722 122.909 174.349 123.208 174.05 123.656C172.706 125 171.586 125.672 170.69 125.672ZM201.48 125.672C200.584 125.672 200.136 125.149 200.136 124.104C200.136 123.357 200.36 122.461 200.808 121.416C202.002 118.877 203.346 115.293 204.84 110.664C206.482 106.035 208.498 102.077 210.888 98.792C211.634 97.1493 212.754 95.1333 214.248 92.744C215.89 90.2053 217.458 87.2187 218.952 83.784V82.664C218.952 82.216 218.952 81.8427 218.952 81.544C219.101 81.096 219.25 80.648 219.4 80.2C219.997 79.0053 220.52 78.184 220.968 77.736C221.565 77.288 222.162 76.4667 222.76 75.272C222.76 74.9733 222.76 74.6747 222.76 74.376C222.909 74.0773 223.058 73.7787 223.208 73.48C222.909 73.7787 222.834 73.5547 222.984 72.808C222.685 72.808 222.984 72.0613 223.88 70.568C224.477 69.224 224.925 68.4773 225.224 68.328H225.448C226.045 67.432 226.568 66.6853 227.016 66.088C227.464 65.3413 227.613 64.8933 227.464 64.744V64.296C227.464 63.2507 227.762 62.28 228.36 61.384C229.106 60.488 229.778 59.5173 230.376 58.472C230.824 57.8747 231.197 57.576 231.496 57.576C231.794 57.576 231.944 57.6507 231.944 57.8C232.093 57.8 232.242 57.8 232.392 57.8C232.84 57.8 233.064 57.4267 233.064 56.68C233.064 56.3813 232.989 56.008 232.84 55.56C232.84 55.112 232.765 54.5893 232.615 53.992C232.765 53.2453 233.362 52.648 234.408 52.2L235.08 51.976C235.826 48.84 236.722 46.7493 237.768 45.704C238.066 45.4053 238.365 45.1067 238.664 44.808C238.962 44.5093 239.261 44.2107 239.56 43.912C241.352 41.9707 242.696 39.88 243.592 37.64C243.89 37.0427 244.264 36.5947 244.712 36.296C245.309 35.848 245.832 35.3253 246.28 34.728C246.578 34.28 246.653 33.832 246.504 33.384C246.504 32.7867 246.578 32.264 246.728 31.816C247.474 30.6213 247.997 29.9493 248.296 29.8C248.594 29.6507 248.893 29.5013 249.192 29.352C249.64 29.0533 250.386 28.3813 251.432 27.336C251.88 26.5893 252.328 25.8427 252.776 25.096C253.373 24.3493 253.97 23.6027 254.568 22.856C255.464 21.8107 256.434 21.064 257.48 20.616C258.525 20.168 259.57 19.496 260.616 18.6C260.914 18.3013 261.064 17.8533 261.064 17.256C261.064 16.5093 261.213 15.9867 261.512 15.688C266.738 11.5067 272.338 7.99733 278.312 5.15999C284.434 2.32266 289.138 0.903996 292.424 0.903996C293.618 0.903996 294.738 0.978661 295.784 1.12799C296.978 1.27732 298.098 1.50133 299.144 1.8H299.592C300.338 1.8 301.085 1.94933 301.832 2.24799C302.578 2.54666 303.25 2.84533 303.848 3.14399C304.445 3.14399 305.192 3.29332 306.088 3.59199C306.834 3.89066 307.282 4.33866 307.432 4.936C307.581 5.53333 307.432 5.98133 306.984 6.27999C306.834 6.42932 306.61 6.42932 306.312 6.27999C306.013 6.13066 305.714 6.056 305.416 6.056C305.117 6.056 304.818 5.90666 304.52 5.60799C304.221 5.30933 303.922 5.08533 303.624 4.936C303.026 4.936 302.354 5.01066 301.608 5.15999C301.01 5.30933 300.338 5.38399 299.592 5.38399H298.92C297.874 5.38399 297.128 5.23466 296.68 4.936C296.381 4.48799 295.634 4.41333 294.44 4.712C294.29 4.712 293.842 4.78667 293.096 4.936C292.349 5.08533 291.826 5.15999 291.528 5.15999C286.152 6.50399 281.448 8.744 277.416 11.88C273.384 14.8667 269.8 18.2267 266.664 21.96C263.677 25.6933 260.765 29.2773 257.928 32.712C256.584 35.4 255.24 37.5653 253.896 39.208C253.746 39.3573 253.597 39.2827 253.448 38.984C253.298 38.6853 253.149 38.6853 253 38.984C252.552 39.432 252.178 40.1787 251.88 41.224C251.73 42.12 251.432 42.8667 250.984 43.464C250.834 43.6133 250.685 43.5387 250.536 43.24C250.386 42.9413 250.162 42.9413 249.864 43.24C249.714 43.3893 249.49 43.9867 249.192 45.032C249.042 45.928 248.818 46.5253 248.52 46.824C246.728 49.2133 244.786 51.528 242.696 53.768C240.605 56.008 238.514 58.6213 236.424 61.608C233.437 66.2373 230.6 70.792 227.912 75.272C225.224 79.752 222.386 84.68 219.4 90.056C218.354 91.848 217.533 93.4907 216.936 94.984C216.488 96.328 215.965 97.5973 215.368 98.792C215.069 99.24 214.92 99.8373 214.92 100.584C214.92 101.629 215.517 102.152 216.712 102.152C217.608 102.152 218.504 101.928 219.4 101.48L221.64 100.584C225.224 97.2987 228.957 94.536 232.84 92.296C232.989 92.296 233.064 92.296 233.064 92.296C233.213 92.1467 233.362 92.072 233.512 92.072C233.96 92.072 234.258 92.3707 234.408 92.968C234.557 93.416 234.408 93.7893 233.96 94.088C229.629 96.4773 225.597 99.5387 221.864 103.272C221.714 103.571 221.565 103.869 221.416 104.168C221.266 104.467 221.042 104.765 220.744 105.064C220.445 105.363 219.997 105.885 219.4 106.632C218.952 107.379 218.728 107.827 218.728 107.976C218.578 108.424 218.354 108.573 218.056 108.424C217.906 108.275 217.458 108.499 216.712 109.096C216.562 109.245 216.413 109.544 216.264 109.992C216.264 110.44 216.189 110.813 216.04 111.112C215.89 111.56 215.592 111.933 215.144 112.232C214.845 112.381 214.696 112.531 214.696 112.68C214.546 113.277 214.248 113.651 213.8 113.8C213.501 113.8 213.202 113.949 212.904 114.248C212.754 114.397 212.754 114.621 212.904 114.92C213.053 115.219 212.978 115.517 212.68 115.816C212.53 116.264 212.381 116.488 212.232 116.488C212.082 116.339 211.858 116.413 211.56 116.712C210.962 117.309 210.514 117.608 210.216 117.608C209.32 117.907 208.946 118.131 209.096 118.28C209.394 118.429 209.618 118.579 209.768 118.728C210.066 118.728 209.842 118.952 209.096 119.4C208.797 119.549 208.498 119.997 208.2 120.744C207.901 121.341 207.602 121.789 207.304 122.088C206.856 122.387 206.408 122.611 205.96 122.76C205.661 122.909 205.288 123.208 204.84 123.656C203.496 125 202.376 125.672 201.48 125.672ZM252.294 125.448C248.561 125.448 245.276 124.403 242.438 122.312C239.601 120.221 238.182 116.637 238.182 111.56C238.182 109.619 238.406 107.677 238.854 105.736C239.302 103.645 239.825 101.629 240.422 99.688C240.721 97.7467 241.169 96.0293 241.766 94.536C241.916 93.9387 241.99 93.64 241.99 93.64C242.14 93.4907 242.513 93.2667 243.11 92.968L244.902 90.28V89.384C244.753 89.384 244.678 89.384 244.678 89.384C244.678 89.2347 244.678 89.16 244.678 89.16C244.678 88.712 245.052 88.1893 245.798 87.592C246.545 86.9947 246.918 86.696 246.918 86.696C247.068 85.9493 247.292 85.576 247.59 85.576C247.889 85.576 248.262 85.352 248.71 84.904H251.174V84.456C251.174 83.7093 250.801 83.4107 250.054 83.56C249.457 83.56 249.158 83.4853 249.158 83.336C249.158 83.1867 249.382 82.888 249.83 82.44C250.428 81.8427 250.801 81.4693 250.95 81.32C251.398 80.7227 251.772 80.2 252.07 79.752C252.369 79.1547 252.817 78.7067 253.414 78.408C256.102 75.1227 257.745 73.032 258.342 72.136C259.089 71.24 259.836 70.568 260.582 70.12C260.881 70.12 261.105 70.2693 261.254 70.568C261.553 70.7173 261.553 70.9413 261.254 71.24C261.553 71.688 261.777 71.7627 261.926 71.464C262.225 71.1653 262.374 71.016 262.374 71.016L263.27 70.568C262.972 70.2693 262.822 69.896 262.822 69.448C262.822 68.7013 262.972 68.104 263.27 67.656C263.569 67.0587 264.092 66.4613 264.838 65.864C265.734 65.2667 266.182 64.8933 266.182 64.744C267.078 64.4453 267.75 64.1467 268.198 63.848C268.796 63.5493 269.393 63.4 269.99 63.4C271.036 63.4 272.081 63.7733 273.126 64.52C275.964 66.0133 278.353 67.5067 280.294 69C282.236 70.4933 283.206 72.584 283.206 75.272C283.206 78.1093 282.012 80.5733 279.622 82.664C277.382 84.6053 274.62 86.248 271.334 87.592C268.049 88.936 264.764 90.056 261.478 90.952C258.342 91.6987 255.878 92.296 254.086 92.744C253.041 92.8933 252.518 93.3413 252.518 94.088C252.668 94.6853 252.593 95.3573 252.294 96.104L250.726 98.568L249.382 101.704L248.262 103.72C247.217 104.616 246.844 105.288 247.142 105.736C247.441 106.184 247.964 106.109 248.71 105.512C248.86 105.661 248.934 105.885 248.934 106.184C248.934 106.781 248.785 107.528 248.486 108.424C248.188 109.171 247.964 109.768 247.814 110.216C247.665 110.813 247.665 111.112 247.814 111.112C248.113 110.963 248.262 111.261 248.262 112.008L248.486 115.144C249.382 117.981 251.398 119.624 254.534 120.072C254.833 120.072 255.132 120.147 255.43 120.296C255.878 120.296 256.252 120.296 256.55 120.296C259.238 120.296 260.657 120.072 260.806 119.624C261.105 119.176 261.478 118.877 261.926 118.728C263.27 118.429 264.39 118.131 265.286 117.832C266.332 117.533 267.377 117.085 268.422 116.488C270.214 115.741 271.932 114.771 273.574 113.576C275.217 112.381 276.934 111.187 278.726 109.992L280.966 108.424C281.116 108.125 281.116 107.901 280.966 107.752C280.817 107.603 280.817 107.453 280.966 107.304C281.265 107.155 281.489 107.155 281.638 107.304C281.937 107.304 282.161 107.229 282.31 107.08C282.609 106.931 282.908 106.707 283.206 106.408C283.505 105.96 283.804 105.587 284.102 105.288C284.401 104.989 284.55 104.691 284.55 104.392C284.7 104.093 284.924 103.795 285.222 103.496C286.417 102.301 287.612 101.032 288.806 99.688C290.15 98.344 291.27 97.1493 292.166 96.104C293.212 94.6107 294.033 93.864 294.63 93.864C294.929 93.864 295.078 94.0133 295.078 94.312C295.078 95.0587 294.556 96.1787 293.51 97.672C290.972 101.405 288.06 105.064 284.774 108.648C281.489 112.083 277.905 115.219 274.022 118.056C271.185 119.997 267.825 121.715 263.942 123.208C260.06 124.701 256.177 125.448 252.294 125.448ZM255.654 89.384C257.894 89.2347 260.806 88.6373 264.39 87.592C267.974 86.3973 270.961 84.8293 273.35 82.888C275.889 80.7973 277.158 78.4827 277.158 75.944C277.158 73.5547 275.889 71.24 273.35 69C271.26 70.4933 268.945 72.6587 266.406 75.496C264.017 78.184 261.852 80.872 259.91 83.56C257.969 86.0987 256.55 88.04 255.654 89.384Z" fill="white"/>
</svg>
